<?xml version="1.0" standalone="no"?><svg xmlns:xlink="http://www.w3.org/1999/xlink" xmlns="http://www.w3.org/2000/svg" viewBox="0 0 1000 666.6666666666667" preserveAspectRatio="xMaxYMax slice"><g transform="scale(1.3133701076963489)"><rect x="0" y="0" width="761.4000000000001" height="507.6" fill="#F5F5F5"/><circle cx="31.724999999999998" cy="31.724999999999998" r="6.345" fill="#BFDBFE"/><circle cx="95.175" cy="31.724999999999998" r="6.345" fill="#BFDBFE"/><circle cx="158.625" cy="31.724999999999998" r="6.345" fill="#E5E7EB"/><circle cx="222.075" cy="31.724999999999998" r="6.345" fill="#BFDBFE"/><circle cx="285.52500000000003" cy="31.724999999999998" r="6.345" fill="#BFDBFE"/><circle cx="348.975" cy="31.724999999999998" r="6.345" fill="#E5E7EB"/><circle cx="412.425" cy="31.724999999999998" r="6.345" fill="#BFDBFE"/><circle cx="475.875" cy="31.724999999999998" r="6.345" fill="#BFDBFE"/><circle cx="539.325" cy="31.724999999999998" r="6.345" fill="#E5E7EB"/><circle cx="602.775" cy="31.724999999999998" r="6.345" fill="#E5E7EB"/><circle cx="666.225" cy="31.724999999999998" r="6.345" fill="#BFDBFE"/><circle cx="729.6750000000001" cy="31.724999999999998" r="6.345" fill="#E5E7EB"/><circle cx="31.724999999999998" cy="95.175" r="6.345" fill="#E5E7EB"/><circle cx="95.18" cy="95.18" r="7.87" fill="#E5E7EB"/><circle cx="158.62" cy="95.17" r="9.39" fill="#E5E7EB"/><circle cx="222.075" cy="95.17500000000001" r="10.915" fill="#E5E7EB"/><circle cx="285.525" cy="95.175" r="12.435" fill="#E5E7EB"/><circle cx="348.97999999999996" cy="95.18" r="13.96" fill="#E5E7EB"/><circle cx="412.43" cy="95.18" r="13.96" fill="#BFDBFE"/><circle cx="475.88" cy="95.18" r="13.96" fill="#E5E7EB"/><circle cx="539.3249999999999" cy="95.175" r="12.435" fill="#E5E7EB"/><circle cx="602.775" cy="95.17500000000001" r="10.915" fill="#BFDBFE"/><circle cx="666.22" cy="95.17" r="9.39" fill="#BFDBFE"/><circle cx="729.68" cy="95.18" r="7.87" fill="#E5E7EB"/><circle cx="31.724999999999998" cy="158.625" r="6.345" fill="#E5E7EB"/><circle cx="95.17" cy="158.62" r="9.39" fill="#E5E7EB"/><circle cx="158.625" cy="158.625" r="12.435" fill="#BFDBFE"/><circle cx="222.07" cy="158.61999999999998" r="15.48" fill="#E5E7EB"/><circle cx="285.525" cy="158.625" r="18.525" fill="#E5E7EB"/><circle cx="348.97499999999997" cy="158.625" r="21.575" fill="#E5E7EB"/><circle cx="412.425" cy="158.625" r="21.575" fill="#E5E7EB"/><circle cx="475.875" cy="158.625" r="21.575" fill="#E5E7EB"/><circle cx="539.3249999999999" cy="158.625" r="18.525" fill="#BFDBFE"/><circle cx="602.77" cy="158.61999999999998" r="15.48" fill="#BFDBFE"/><circle cx="666.2249999999999" cy="158.625" r="12.435" fill="#BFDBFE"/><circle cx="729.67" cy="158.62" r="9.39" fill="#E5E7EB"/><circle cx="31.724999999999998" cy="222.075" r="6.345" fill="#BFDBFE"/><circle cx="95.17500000000001" cy="222.075" r="10.915" fill="#BFDBFE"/><circle cx="158.61999999999998" cy="222.07" r="15.48" fill="#BFDBFE"/><circle cx="222.07000000000002" cy="222.07000000000002" r="20.05" fill="#BFDBFE"/><circle cx="285.53000000000003" cy="222.08" r="24.62" fill="#BFDBFE"/><circle cx="348.975" cy="222.075" r="29.185" fill="#BFDBFE"/><circle cx="412.425" cy="222.075" r="29.185" fill="#BFDBFE"/><circle cx="475.875" cy="222.075" r="29.185" fill="#E5E7EB"/><circle cx="539.33" cy="222.08" r="24.62" fill="#BFDBFE"/><circle cx="602.77" cy="222.07000000000002" r="20.05" fill="#E5E7EB"/><circle cx="666.22" cy="222.07" r="15.48" fill="#E5E7EB"/><circle cx="729.675" cy="222.075" r="10.915" fill="#E5E7EB"/><circle cx="31.724999999999998" cy="285.52500000000003" r="6.345" fill="#BFDBFE"/><circle cx="95.17" cy="285.52000000000004" r="11.42" fill="#BFDBFE"/><circle cx="158.625" cy="285.525" r="16.495" fill="#E5E7EB"/><circle cx="222.075" cy="285.525" r="21.575" fill="#BFDBFE"/><circle cx="285.53" cy="285.53" r="26.65" fill="#BFDBFE"/><circle cx="348.975" cy="285.52500000000003" r="31.725" fill="#E5E7EB"/><circle cx="412.425" cy="285.52500000000003" r="31.725" fill="#E5E7EB"/><circle cx="475.875" cy="285.52500000000003" r="31.725" fill="#E5E7EB"/><circle cx="539.3299999999999" cy="285.53" r="26.65" fill="#E5E7EB"/><circle cx="602.7750000000001" cy="285.525" r="21.575" fill="#BFDBFE"/><circle cx="666.225" cy="285.525" r="16.495" fill="#BFDBFE"/><circle cx="729.67" cy="285.52000000000004" r="11.42" fill="#E5E7EB"/><circle cx="31.724999999999998" cy="348.975" r="6.345" fill="#BFDBFE"/><circle cx="95.17500000000001" cy="348.975" r="10.915" fill="#BFDBFE"/><circle cx="158.61999999999998" cy="348.97" r="15.48" fill="#BFDBFE"/><circle cx="222.07000000000002" cy="348.97" r="20.05" fill="#E5E7EB"/><circle cx="285.53000000000003" cy="348.98" r="24.62" fill="#E5E7EB"/><circle cx="348.975" cy="348.975" r="29.185" fill="#BFDBFE"/><circle cx="412.425" cy="348.975" r="29.185" fill="#E5E7EB"/><circle cx="475.875" cy="348.975" r="29.185" fill="#E5E7EB"/><circle cx="539.33" cy="348.98" r="24.62" fill="#BFDBFE"/><circle cx="602.77" cy="348.97" r="20.05" fill="#BFDBFE"/><circle cx="666.22" cy="348.97" r="15.48" fill="#BFDBFE"/><circle cx="729.675" cy="348.975" r="10.915" fill="#E5E7EB"/><circle cx="31.724999999999998" cy="412.425" r="6.345" fill="#E5E7EB"/><circle cx="95.17" cy="412.41999999999996" r="9.39" fill="#BFDBFE"/><circle cx="158.625" cy="412.425" r="12.435" fill="#E5E7EB"/><circle cx="222.07" cy="412.42" r="15.48" fill="#E5E7EB"/><circle cx="285.525" cy="412.42499999999995" r="18.525" fill="#E5E7EB"/><circle cx="348.97499999999997" cy="412.425" r="21.575" fill="#BFDBFE"/><circle cx="412.425" cy="412.425" r="21.575" fill="#E5E7EB"/><circle cx="475.875" cy="412.425" r="21.575" fill="#E5E7EB"/><circle cx="539.3249999999999" cy="412.42499999999995" r="18.525" fill="#BFDBFE"/><circle cx="602.77" cy="412.42" r="15.48" fill="#E5E7EB"/><circle cx="666.2249999999999" cy="412.425" r="12.435" fill="#BFDBFE"/><circle cx="729.67" cy="412.41999999999996" r="9.39" fill="#E5E7EB"/><circle cx="31.724999999999998" cy="475.875" r="6.345" fill="#E5E7EB"/><circle cx="95.18" cy="475.88" r="7.87" fill="#BFDBFE"/><circle cx="158.62" cy="475.87" r="9.39" fill="#BFDBFE"/><circle cx="222.075" cy="475.875" r="10.915" fill="#E5E7EB"/><circle cx="285.525" cy="475.875" r="12.435" fill="#E5E7EB"/><circle cx="348.97999999999996" cy="475.88" r="13.96" fill="#E5E7EB"/><circle cx="412.43" cy="475.88" r="13.96" fill="#E5E7EB"/><circle cx="475.88" cy="475.88" r="13.96" fill="#BFDBFE"/><circle cx="539.3249999999999" cy="475.875" r="12.435" fill="#BFDBFE"/><circle cx="602.775" cy="475.875" r="10.915" fill="#E5E7EB"/><circle cx="666.22" cy="475.87" r="9.39" fill="#BFDBFE"/><circle cx="729.68" cy="475.88" r="7.87" fill="#E5E7EB"/></g></svg>